<?xml version="1.0" standalone="no"?>
<!DOCTYPE svg PUBLIC "-//W3C//DTD SVG 20010904//EN"
 "http://www.w3.org/TR/2001/REC-SVG-20010904/DTD/svg10.dtd">
<svg version="1.0" xmlns="http://www.w3.org/2000/svg"
 width="111.000000pt" height="111.000000pt" viewBox="0 0 111.000000 111.000000"
 preserveAspectRatio="xMidYMid meet">
<metadata>
Created by potrace 1.11, written by Peter Selinger 2001-2013
</metadata>
<g transform="translate(0.000000,111.000000) scale(0.100000,-0.100000)"
fill="#000000" stroke="none">
<path d="M440 1077 c-263 -63 -369 -317 -226 -541 156 -243 515 -336 740 -192
103 66 148 151 150 277 0 80 -2 92 -36 160 -67 134 -192 237 -347 285 -65 21
-214 26 -281 11z m296 -30 c91 -24 199 -112 240 -194 73 -148 8 -305 -145
-350 -219 -64 -473 109 -473 321 0 91 73 187 165 219 41 14 166 17 213 4z"/>
<path d="M597 1005 c-170 -60 -150 -278 32 -368 60 -29 169 -30 221 -3 115 62
126 199 23 301 -77 75 -186 103 -276 70z"/>
<path d="M148 923 c-42 -44 -97 -143 -119 -213 -20 -63 -28 -193 -15 -249 69
-301 345 -485 648 -431 150 27 310 145 377 279 18 34 31 65 29 66 -2 2 -26
-19 -53 -46 -123 -123 -342 -176 -520 -125 -141 41 -276 146 -337 262 -74 138
-76 293 -5 436 13 26 23 48 22 48 -1 0 -13 -12 -27 -27z"/>
</g>
</svg>
